<?xml version="1.0" encoding="utf-8" standalone="no"?>
<!DOCTYPE svg PUBLIC "-//W3C//DTD SVG 1.1//EN"
  "http://www.w3.org/Graphics/SVG/1.1/DTD/svg11.dtd">
<svg xmlns:xlink="http://www.w3.org/1999/xlink" width="998.670938pt" height="349.37pt" viewBox="0 0 998.670938 349.37" xmlns="http://www.w3.org/2000/svg" version="1.1">
 <metadata>
  <rdf:RDF xmlns:dc="http://purl.org/dc/elements/1.1/" xmlns:cc="http://creativecommons.org/ns#" xmlns:rdf="http://www.w3.org/1999/02/22-rdf-syntax-ns#">
   <cc:Work>
    <dc:type rdf:resource="http://purl.org/dc/dcmitype/StillImage"/>
    <dc:date>2026-02-17T08:43:42.491950</dc:date>
    <dc:format>image/svg+xml</dc:format>
    <dc:creator>
     <cc:Agent>
      <dc:title>Matplotlib v3.10.6, https://matplotlib.org/</dc:title>
     </cc:Agent>
    </dc:creator>
   </cc:Work>
  </rdf:RDF>
 </metadata>
 <defs>
  <style type="text/css">*{stroke-linejoin: round; stroke-linecap: butt}</style>
 </defs>
 <g id="figure_1">
  <g id="patch_1">
   <path d="M 0 349.37 
L 998.670938 349.37 
L 998.670938 0 
L 0 0 
z
" style="fill: #ffffff"/>
  </g>
  <g id="axes_1">
   <g id="patch_2">
    <path d="M 56.840938 309.878125 
L 498.585938 309.878125 
L 498.585938 22.318125 
L 56.840938 22.318125 
z
" style="fill: #ffffff"/>
   </g>
   <g id="patch_3">
    <path d="M 76.920256 309.878125 
L 81.323784 309.878125 
L 81.323784 309.356474 
L 76.920256 309.356474 
z
" clip-path="url(#pff766281ab)" style="fill: #1f77b4; opacity: 0.7; stroke: #000000; stroke-linejoin: miter"/>
   </g>
   <g id="patch_4">
    <path d="M 81.323784 309.878125 
L 85.727313 309.878125 
L 85.727313 306.226569 
L 81.323784 306.226569 
z
" clip-path="url(#pff766281ab)" style="fill: #1f77b4; opacity: 0.7; stroke: #000000; stroke-linejoin: miter"/>
   </g>
   <g id="patch_5">
    <path d="M 85.727313 309.878125 
L 90.130842 309.878125 
L 90.130842 290.577046 
L 85.727313 290.577046 
z
" clip-path="url(#pff766281ab)" style="fill: #1f77b4; opacity: 0.7; stroke: #000000; stroke-linejoin: miter"/>
   </g>
   <g id="patch_6">
    <path d="M 90.130842 309.878125 
L 94.53437 309.878125 
L 94.53437 249.192749 
L 90.130842 249.192749 
z
" clip-path="url(#pff766281ab)" style="fill: #1f77b4; opacity: 0.7; stroke: #000000; stroke-linejoin: miter"/>
   </g>
   <g id="patch_7">
    <path d="M 94.53437 309.878125 
L 98.937899 309.878125 
L 98.937899 169.554062 
L 94.53437 169.554062 
z
" clip-path="url(#pff766281ab)" style="fill: #1f77b4; opacity: 0.7; stroke: #000000; stroke-linejoin: miter"/>
   </g>
   <g id="patch_8">
    <path d="M 98.937899 309.878125 
L 103.341428 309.878125 
L 103.341428 89.567606 
L 98.937899 89.567606 
z
" clip-path="url(#pff766281ab)" style="fill: #1f77b4; opacity: 0.7; stroke: #000000; stroke-linejoin: miter"/>
   </g>
   <g id="patch_9">
    <path d="M 103.341428 309.878125 
L 107.744956 309.878125 
L 107.744956 36.011458 
L 103.341428 36.011458 
z
" clip-path="url(#pff766281ab)" style="fill: #1f77b4; opacity: 0.7; stroke: #000000; stroke-linejoin: miter"/>
   </g>
   <g id="patch_10">
    <path d="M 107.744956 309.878125 
L 112.148485 309.878125 
L 112.148485 39.749956 
L 107.744956 39.749956 
z
" clip-path="url(#pff766281ab)" style="fill: #1f77b4; opacity: 0.7; stroke: #000000; stroke-linejoin: miter"/>
   </g>
   <g id="patch_11">
    <path d="M 112.148485 309.878125 
L 116.552014 309.878125 
L 116.552014 73.570315 
L 112.148485 73.570315 
z
" clip-path="url(#pff766281ab)" style="fill: #1f77b4; opacity: 0.7; stroke: #000000; stroke-linejoin: miter"/>
   </g>
   <g id="patch_12">
    <path d="M 116.552014 309.878125 
L 120.955542 309.878125 
L 120.955542 130.517194 
L 116.552014 130.517194 
z
" clip-path="url(#pff766281ab)" style="fill: #1f77b4; opacity: 0.7; stroke: #000000; stroke-linejoin: miter"/>
   </g>
   <g id="patch_13">
    <path d="M 120.955542 309.878125 
L 125.359071 309.878125 
L 125.359071 184.334167 
L 120.955542 184.334167 
z
" clip-path="url(#pff766281ab)" style="fill: #1f77b4; opacity: 0.7; stroke: #000000; stroke-linejoin: miter"/>
   </g>
   <g id="patch_14">
    <path d="M 125.359071 309.878125 
L 129.7626 309.878125 
L 129.7626 228.413659 
L 125.359071 228.413659 
z
" clip-path="url(#pff766281ab)" style="fill: #1f77b4; opacity: 0.7; stroke: #000000; stroke-linejoin: miter"/>
   </g>
   <g id="patch_15">
    <path d="M 129.7626 309.878125 
L 134.166128 309.878125 
L 134.166128 257.104453 
L 129.7626 257.104453 
z
" clip-path="url(#pff766281ab)" style="fill: #1f77b4; opacity: 0.7; stroke: #000000; stroke-linejoin: miter"/>
   </g>
   <g id="patch_16">
    <path d="M 134.166128 309.878125 
L 138.569657 309.878125 
L 138.569657 277.796601 
L 134.166128 277.796601 
z
" clip-path="url(#pff766281ab)" style="fill: #1f77b4; opacity: 0.7; stroke: #000000; stroke-linejoin: miter"/>
   </g>
   <g id="patch_17">
    <path d="M 138.569657 309.878125 
L 142.973186 309.878125 
L 142.973186 292.924474 
L 138.569657 292.924474 
z
" clip-path="url(#pff766281ab)" style="fill: #1f77b4; opacity: 0.7; stroke: #000000; stroke-linejoin: miter"/>
   </g>
   <g id="patch_18">
    <path d="M 142.973186 309.878125 
L 147.376714 309.878125 
L 147.376714 298.749575 
L 142.973186 298.749575 
z
" clip-path="url(#pff766281ab)" style="fill: #1f77b4; opacity: 0.7; stroke: #000000; stroke-linejoin: miter"/>
   </g>
   <g id="patch_19">
    <path d="M 147.376714 309.878125 
L 151.780243 309.878125 
L 151.780243 303.618315 
L 147.376714 303.618315 
z
" clip-path="url(#pff766281ab)" style="fill: #1f77b4; opacity: 0.7; stroke: #000000; stroke-linejoin: miter"/>
   </g>
   <g id="patch_20">
    <path d="M 151.780243 309.878125 
L 156.183772 309.878125 
L 156.183772 306.922104 
L 151.780243 306.922104 
z
" clip-path="url(#pff766281ab)" style="fill: #1f77b4; opacity: 0.7; stroke: #000000; stroke-linejoin: miter"/>
   </g>
   <g id="patch_21">
    <path d="M 156.183772 309.878125 
L 160.5873 309.878125 
L 160.5873 307.965405 
L 156.183772 307.965405 
z
" clip-path="url(#pff766281ab)" style="fill: #1f77b4; opacity: 0.7; stroke: #000000; stroke-linejoin: miter"/>
   </g>
   <g id="patch_22">
    <path d="M 160.5873 309.878125 
L 164.990829 309.878125 
L 164.990829 308.487056 
L 160.5873 308.487056 
z
" clip-path="url(#pff766281ab)" style="fill: #1f77b4; opacity: 0.7; stroke: #000000; stroke-linejoin: miter"/>
   </g>
   <g id="patch_23">
    <path d="M 164.990829 309.878125 
L 169.394358 309.878125 
L 169.394358 308.834823 
L 164.990829 308.834823 
z
" clip-path="url(#pff766281ab)" style="fill: #1f77b4; opacity: 0.7; stroke: #000000; stroke-linejoin: miter"/>
   </g>
   <g id="patch_24">
    <path d="M 169.394358 309.878125 
L 173.797886 309.878125 
L 173.797886 309.530358 
L 169.394358 309.530358 
z
" clip-path="url(#pff766281ab)" style="fill: #1f77b4; opacity: 0.7; stroke: #000000; stroke-linejoin: miter"/>
   </g>
   <g id="patch_25">
    <path d="M 173.797886 309.878125 
L 178.201415 309.878125 
L 178.201415 309.791183 
L 173.797886 309.791183 
z
" clip-path="url(#pff766281ab)" style="fill: #1f77b4; opacity: 0.7; stroke: #000000; stroke-linejoin: miter"/>
   </g>
   <g id="patch_26">
    <path d="M 178.201415 309.878125 
L 182.604944 309.878125 
L 182.604944 309.530358 
L 178.201415 309.530358 
z
" clip-path="url(#pff766281ab)" style="fill: #1f77b4; opacity: 0.7; stroke: #000000; stroke-linejoin: miter"/>
   </g>
   <g id="patch_27">
    <path d="M 182.604944 309.878125 
L 187.008472 309.878125 
L 187.008472 309.791183 
L 182.604944 309.791183 
z
" clip-path="url(#pff766281ab)" style="fill: #1f77b4; opacity: 0.7; stroke: #000000; stroke-linejoin: miter"/>
   </g>
   <g id="matplotlib.axis_1">
    <g id="xtick_1">
     <g id="line2d_1">
      <defs>
       <path id="mac63b77311" d="M 0 0 
L 0 3.5 
" style="stroke: #000000; stroke-width: 0.8"/>
      </defs>
      <g>
       <use xlink:href="#mac63b77311" x="87.654294" y="309.878125" style="stroke: #000000; stroke-width: 0.8"/>
      </g>
     </g>
     <g id="text_1">
      <text style="font-size: 11px; font-family: 'DejaVu Sans', 'Bitstream Vera Sans', 'Computer Modern Sans Serif', 'Lucida Grande', 'Verdana', 'Geneva', 'Lucid', 'Arial', 'Helvetica', 'Avant Garde', sans-serif; text-anchor: middle" x="87.654294" y="325.236406" transform="rotate(-0 87.654294 325.236406)">1890</text>
     </g>
    </g>
    <g id="xtick_2">
     <g id="line2d_2">
      <g>
       <use xlink:href="#mac63b77311" x="179.884" y="309.878125" style="stroke: #000000; stroke-width: 0.8"/>
      </g>
     </g>
     <g id="text_2">
      <text style="font-size: 11px; font-family: 'DejaVu Sans', 'Bitstream Vera Sans', 'Computer Modern Sans Serif', 'Lucida Grande', 'Verdana', 'Geneva', 'Lucid', 'Arial', 'Helvetica', 'Avant Garde', sans-serif; text-anchor: middle" x="179.884" y="325.236406" transform="rotate(-0 179.884 325.236406)">1900</text>
     </g>
    </g>
    <g id="xtick_3">
     <g id="line2d_3">
      <g>
       <use xlink:href="#mac63b77311" x="272.113706" y="309.878125" style="stroke: #000000; stroke-width: 0.8"/>
      </g>
     </g>
     <g id="text_3">
      <text style="font-size: 11px; font-family: 'DejaVu Sans', 'Bitstream Vera Sans', 'Computer Modern Sans Serif', 'Lucida Grande', 'Verdana', 'Geneva', 'Lucid', 'Arial', 'Helvetica', 'Avant Garde', sans-serif; text-anchor: middle" x="272.113706" y="325.236406" transform="rotate(-0 272.113706 325.236406)">1910</text>
     </g>
    </g>
    <g id="xtick_4">
     <g id="line2d_4">
      <g>
       <use xlink:href="#mac63b77311" x="364.343412" y="309.878125" style="stroke: #000000; stroke-width: 0.8"/>
      </g>
     </g>
     <g id="text_4">
      <text style="font-size: 11px; font-family: 'DejaVu Sans', 'Bitstream Vera Sans', 'Computer Modern Sans Serif', 'Lucida Grande', 'Verdana', 'Geneva', 'Lucid', 'Arial', 'Helvetica', 'Avant Garde', sans-serif; text-anchor: middle" x="364.343412" y="325.236406" transform="rotate(-0 364.343412 325.236406)">1920</text>
     </g>
    </g>
    <g id="xtick_5">
     <g id="line2d_5">
      <g>
       <use xlink:href="#mac63b77311" x="456.573118" y="309.878125" style="stroke: #000000; stroke-width: 0.8"/>
      </g>
     </g>
     <g id="text_5">
      <text style="font-size: 11px; font-family: 'DejaVu Sans', 'Bitstream Vera Sans', 'Computer Modern Sans Serif', 'Lucida Grande', 'Verdana', 'Geneva', 'Lucid', 'Arial', 'Helvetica', 'Avant Garde', sans-serif; text-anchor: middle" x="456.573118" y="325.236406" transform="rotate(-0 456.573118 325.236406)">1930</text>
     </g>
    </g>
    <g id="text_6">
     <text style="font-size: 11px; font-family: 'DejaVu Sans', 'Bitstream Vera Sans', 'Computer Modern Sans Serif', 'Lucida Grande', 'Verdana', 'Geneva', 'Lucid', 'Arial', 'Helvetica', 'Avant Garde', sans-serif; text-anchor: middle" x="277.713437" y="339.882344" transform="rotate(-0 277.713437 339.882344)">Mean DTW</text>
    </g>
   </g>
   <g id="matplotlib.axis_2">
    <g id="ytick_1">
     <g id="line2d_6">
      <defs>
       <path id="m133518e110" d="M 0 0 
L -3.5 0 
" style="stroke: #000000; stroke-width: 0.8"/>
      </defs>
      <g>
       <use xlink:href="#m133518e110" x="56.840938" y="309.878125" style="stroke: #000000; stroke-width: 0.8"/>
      </g>
     </g>
     <g id="text_7">
      <text style="font-size: 11px; font-family: 'DejaVu Sans', 'Bitstream Vera Sans', 'Computer Modern Sans Serif', 'Lucida Grande', 'Verdana', 'Geneva', 'Lucid', 'Arial', 'Helvetica', 'Avant Garde', sans-serif; text-anchor: end" x="49.840938" y="314.057266" transform="rotate(-0 49.840938 314.057266)">0</text>
     </g>
    </g>
    <g id="ytick_2">
     <g id="line2d_7">
      <g>
       <use xlink:href="#m133518e110" x="56.840938" y="266.407226" style="stroke: #000000; stroke-width: 0.8"/>
      </g>
     </g>
     <g id="text_8">
      <text style="font-size: 11px; font-family: 'DejaVu Sans', 'Bitstream Vera Sans', 'Computer Modern Sans Serif', 'Lucida Grande', 'Verdana', 'Geneva', 'Lucid', 'Arial', 'Helvetica', 'Avant Garde', sans-serif; text-anchor: end" x="49.840938" y="270.586366" transform="rotate(-0 49.840938 270.586366)">500</text>
     </g>
    </g>
    <g id="ytick_3">
     <g id="line2d_8">
      <g>
       <use xlink:href="#m133518e110" x="56.840938" y="222.936326" style="stroke: #000000; stroke-width: 0.8"/>
      </g>
     </g>
     <g id="text_9">
      <text style="font-size: 11px; font-family: 'DejaVu Sans', 'Bitstream Vera Sans', 'Computer Modern Sans Serif', 'Lucida Grande', 'Verdana', 'Geneva', 'Lucid', 'Arial', 'Helvetica', 'Avant Garde', sans-serif; text-anchor: end" x="49.840938" y="227.115467" transform="rotate(-0 49.840938 227.115467)">1000</text>
     </g>
    </g>
    <g id="ytick_4">
     <g id="line2d_9">
      <g>
       <use xlink:href="#m133518e110" x="56.840938" y="179.465427" style="stroke: #000000; stroke-width: 0.8"/>
      </g>
     </g>
     <g id="text_10">
      <text style="font-size: 11px; font-family: 'DejaVu Sans', 'Bitstream Vera Sans', 'Computer Modern Sans Serif', 'Lucida Grande', 'Verdana', 'Geneva', 'Lucid', 'Arial', 'Helvetica', 'Avant Garde', sans-serif; text-anchor: end" x="49.840938" y="183.644567" transform="rotate(-0 49.840938 183.644567)">1500</text>
     </g>
    </g>
    <g id="ytick_5">
     <g id="line2d_10">
      <g>
       <use xlink:href="#m133518e110" x="56.840938" y="135.994527" style="stroke: #000000; stroke-width: 0.8"/>
      </g>
     </g>
     <g id="text_11">
      <text style="font-size: 11px; font-family: 'DejaVu Sans', 'Bitstream Vera Sans', 'Computer Modern Sans Serif', 'Lucida Grande', 'Verdana', 'Geneva', 'Lucid', 'Arial', 'Helvetica', 'Avant Garde', sans-serif; text-anchor: end" x="49.840938" y="140.173668" transform="rotate(-0 49.840938 140.173668)">2000</text>
     </g>
    </g>
    <g id="ytick_6">
     <g id="line2d_11">
      <g>
       <use xlink:href="#m133518e110" x="56.840938" y="92.523628" style="stroke: #000000; stroke-width: 0.8"/>
      </g>
     </g>
     <g id="text_12">
      <text style="font-size: 11px; font-family: 'DejaVu Sans', 'Bitstream Vera Sans', 'Computer Modern Sans Serif', 'Lucida Grande', 'Verdana', 'Geneva', 'Lucid', 'Arial', 'Helvetica', 'Avant Garde', sans-serif; text-anchor: end" x="49.840938" y="96.702768" transform="rotate(-0 49.840938 96.702768)">2500</text>
     </g>
    </g>
    <g id="ytick_7">
     <g id="line2d_12">
      <g>
       <use xlink:href="#m133518e110" x="56.840938" y="49.052728" style="stroke: #000000; stroke-width: 0.8"/>
      </g>
     </g>
     <g id="text_13">
      <text style="font-size: 11px; font-family: 'DejaVu Sans', 'Bitstream Vera Sans', 'Computer Modern Sans Serif', 'Lucida Grande', 'Verdana', 'Geneva', 'Lucid', 'Arial', 'Helvetica', 'Avant Garde', sans-serif; text-anchor: end" x="49.840938" y="53.231869" transform="rotate(-0 49.840938 53.231869)">3000</text>
     </g>
    </g>
    <g id="text_14">
     <text style="font-size: 11px; font-family: 'DejaVu Sans', 'Bitstream Vera Sans', 'Computer Modern Sans Serif', 'Lucida Grande', 'Verdana', 'Geneva', 'Lucid', 'Arial', 'Helvetica', 'Avant Garde', sans-serif; text-anchor: middle" x="15.558281" y="166.098125" transform="rotate(-90 15.558281 166.098125)">Frequency</text>
    </g>
   </g>
   <g id="line2d_13">
    <path d="M 478.506619 309.878125 
L 478.506619 22.318125 
" clip-path="url(#pff766281ab)" style="fill: none; stroke-dasharray: 7.4,3.2; stroke-dashoffset: 0; stroke: #1f77b4; stroke-width: 2"/>
   </g>
   <g id="patch_28">
    <path d="M 56.840938 309.878125 
L 56.840938 22.318125 
" style="fill: none; stroke: #000000; stroke-width: 0.8; stroke-linejoin: miter; stroke-linecap: square"/>
   </g>
   <g id="patch_29">
    <path d="M 498.585938 309.878125 
L 498.585938 22.318125 
" style="fill: none; stroke: #000000; stroke-width: 0.8; stroke-linejoin: miter; stroke-linecap: square"/>
   </g>
   <g id="patch_30">
    <path d="M 56.840937 309.878125 
L 498.585938 309.878125 
" style="fill: none; stroke: #000000; stroke-width: 0.8; stroke-linejoin: miter; stroke-linecap: square"/>
   </g>
   <g id="patch_31">
    <path d="M 56.840937 22.318125 
L 498.585938 22.318125 
" style="fill: none; stroke: #000000; stroke-width: 0.8; stroke-linejoin: miter; stroke-linecap: square"/>
   </g>
   <g id="text_15">
    <text style="font-size: 12px; font-family: 'DejaVu Sans', 'Bitstream Vera Sans', 'Computer Modern Sans Serif', 'Lucida Grande', 'Verdana', 'Geneva', 'Lucid', 'Arial', 'Helvetica', 'Avant Garde', sans-serif; text-anchor: start" x="78.928188" y="45.81425" transform="rotate(-0 78.928188 45.81425)">p = 4.99975e-05</text>
   </g>
   <g id="text_16">
    <text style="font-size: 12px; font-family: 'DejaVu Sans', 'Bitstream Vera Sans', 'Computer Modern Sans Serif', 'Lucida Grande', 'Verdana', 'Geneva', 'Lucid', 'Arial', 'Helvetica', 'Avant Garde', sans-serif; text-anchor: middle" x="277.713437" y="16.318125" transform="rotate(-0 277.713437 16.318125)">Permutation Test — Histogram</text>
   </g>
   <g id="legend_1">
    <g id="patch_32">
     <path d="M 195.802969 304.378125 
L 359.623906 304.378125 
Q 361.823906 304.378125 361.823906 302.178125 
L 361.823906 287.132188 
Q 361.823906 284.932188 359.623906 284.932188 
L 195.802969 284.932188 
Q 193.602969 284.932188 193.602969 287.132188 
L 193.602969 302.178125 
Q 193.602969 304.378125 195.802969 304.378125 
z
" style="fill: #ffffff; opacity: 0.8; stroke: #cccccc; stroke-linejoin: miter"/>
    </g>
    <g id="line2d_14">
     <path d="M 198.002969 293.840469 
L 209.002969 293.840469 
L 220.002969 293.840469 
" style="fill: none; stroke-dasharray: 7.4,3.2; stroke-dashoffset: 0; stroke: #1f77b4; stroke-width: 2"/>
    </g>
    <g id="text_17">
     <text style="font-size: 11px; font-family: 'DejaVu Sans', 'Bitstream Vera Sans', 'Computer Modern Sans Serif', 'Lucida Grande', 'Verdana', 'Geneva', 'Lucid', 'Arial', 'Helvetica', 'Avant Garde', sans-serif; text-anchor: start" x="228.802969" y="297.690469" transform="rotate(-0 228.802969 297.690469)">Observed = 1932.3781</text>
    </g>
   </g>
  </g>
  <g id="axes_2">
   <g id="patch_33">
    <path d="M 549.725937 309.878125 
L 991.470937 309.878125 
L 991.470937 22.318125 
L 549.725937 22.318125 
z
" style="fill: #ffffff"/>
   </g>
   <g id="matplotlib.axis_3">
    <g id="xtick_6">
     <g id="line2d_15">
      <g>
       <use xlink:href="#mac63b77311" x="580.539294" y="309.878125" style="stroke: #000000; stroke-width: 0.8"/>
      </g>
     </g>
     <g id="text_18">
      <text style="font-size: 11px; font-family: 'DejaVu Sans', 'Bitstream Vera Sans', 'Computer Modern Sans Serif', 'Lucida Grande', 'Verdana', 'Geneva', 'Lucid', 'Arial', 'Helvetica', 'Avant Garde', sans-serif; text-anchor: middle" x="580.539294" y="325.236406" transform="rotate(-0 580.539294 325.236406)">1890</text>
     </g>
    </g>
    <g id="xtick_7">
     <g id="line2d_16">
      <g>
       <use xlink:href="#mac63b77311" x="672.769" y="309.878125" style="stroke: #000000; stroke-width: 0.8"/>
      </g>
     </g>
     <g id="text_19">
      <text style="font-size: 11px; font-family: 'DejaVu Sans', 'Bitstream Vera Sans', 'Computer Modern Sans Serif', 'Lucida Grande', 'Verdana', 'Geneva', 'Lucid', 'Arial', 'Helvetica', 'Avant Garde', sans-serif; text-anchor: middle" x="672.769" y="325.236406" transform="rotate(-0 672.769 325.236406)">1900</text>
     </g>
    </g>
    <g id="xtick_8">
     <g id="line2d_17">
      <g>
       <use xlink:href="#mac63b77311" x="764.998706" y="309.878125" style="stroke: #000000; stroke-width: 0.8"/>
      </g>
     </g>
     <g id="text_20">
      <text style="font-size: 11px; font-family: 'DejaVu Sans', 'Bitstream Vera Sans', 'Computer Modern Sans Serif', 'Lucida Grande', 'Verdana', 'Geneva', 'Lucid', 'Arial', 'Helvetica', 'Avant Garde', sans-serif; text-anchor: middle" x="764.998706" y="325.236406" transform="rotate(-0 764.998706 325.236406)">1910</text>
     </g>
    </g>
    <g id="xtick_9">
     <g id="line2d_18">
      <g>
       <use xlink:href="#mac63b77311" x="857.228412" y="309.878125" style="stroke: #000000; stroke-width: 0.8"/>
      </g>
     </g>
     <g id="text_21">
      <text style="font-size: 11px; font-family: 'DejaVu Sans', 'Bitstream Vera Sans', 'Computer Modern Sans Serif', 'Lucida Grande', 'Verdana', 'Geneva', 'Lucid', 'Arial', 'Helvetica', 'Avant Garde', sans-serif; text-anchor: middle" x="857.228412" y="325.236406" transform="rotate(-0 857.228412 325.236406)">1920</text>
     </g>
    </g>
    <g id="xtick_10">
     <g id="line2d_19">
      <g>
       <use xlink:href="#mac63b77311" x="949.458118" y="309.878125" style="stroke: #000000; stroke-width: 0.8"/>
      </g>
     </g>
     <g id="text_22">
      <text style="font-size: 11px; font-family: 'DejaVu Sans', 'Bitstream Vera Sans', 'Computer Modern Sans Serif', 'Lucida Grande', 'Verdana', 'Geneva', 'Lucid', 'Arial', 'Helvetica', 'Avant Garde', sans-serif; text-anchor: middle" x="949.458118" y="325.236406" transform="rotate(-0 949.458118 325.236406)">1930</text>
     </g>
    </g>
    <g id="text_23">
     <text style="font-size: 11px; font-family: 'DejaVu Sans', 'Bitstream Vera Sans', 'Computer Modern Sans Serif', 'Lucida Grande', 'Verdana', 'Geneva', 'Lucid', 'Arial', 'Helvetica', 'Avant Garde', sans-serif; text-anchor: middle" x="770.598437" y="339.882344" transform="rotate(-0 770.598437 339.882344)">Mean DTW</text>
    </g>
   </g>
   <g id="matplotlib.axis_4">
    <g id="ytick_8">
     <g id="line2d_20">
      <g>
       <use xlink:href="#m133518e110" x="549.725937" y="296.807216" style="stroke: #000000; stroke-width: 0.8"/>
      </g>
     </g>
     <g id="text_24">
      <text style="font-size: 11px; font-family: 'DejaVu Sans', 'Bitstream Vera Sans', 'Computer Modern Sans Serif', 'Lucida Grande', 'Verdana', 'Geneva', 'Lucid', 'Arial', 'Helvetica', 'Avant Garde', sans-serif; text-anchor: end" x="542.725937" y="300.986357" transform="rotate(-0 542.725937 300.986357)">0.0</text>
     </g>
    </g>
    <g id="ytick_9">
     <g id="line2d_21">
      <g>
       <use xlink:href="#m133518e110" x="549.725937" y="244.52358" style="stroke: #000000; stroke-width: 0.8"/>
      </g>
     </g>
     <g id="text_25">
      <text style="font-size: 11px; font-family: 'DejaVu Sans', 'Bitstream Vera Sans', 'Computer Modern Sans Serif', 'Lucida Grande', 'Verdana', 'Geneva', 'Lucid', 'Arial', 'Helvetica', 'Avant Garde', sans-serif; text-anchor: end" x="542.725937" y="248.70272" transform="rotate(-0 542.725937 248.70272)">0.2</text>
     </g>
    </g>
    <g id="ytick_10">
     <g id="line2d_22">
      <g>
       <use xlink:href="#m133518e110" x="549.725937" y="192.239943" style="stroke: #000000; stroke-width: 0.8"/>
      </g>
     </g>
     <g id="text_26">
      <text style="font-size: 11px; font-family: 'DejaVu Sans', 'Bitstream Vera Sans', 'Computer Modern Sans Serif', 'Lucida Grande', 'Verdana', 'Geneva', 'Lucid', 'Arial', 'Helvetica', 'Avant Garde', sans-serif; text-anchor: end" x="542.725937" y="196.419084" transform="rotate(-0 542.725937 196.419084)">0.4</text>
     </g>
    </g>
    <g id="ytick_11">
     <g id="line2d_23">
      <g>
       <use xlink:href="#m133518e110" x="549.725937" y="139.956307" style="stroke: #000000; stroke-width: 0.8"/>
      </g>
     </g>
     <g id="text_27">
      <text style="font-size: 11px; font-family: 'DejaVu Sans', 'Bitstream Vera Sans', 'Computer Modern Sans Serif', 'Lucida Grande', 'Verdana', 'Geneva', 'Lucid', 'Arial', 'Helvetica', 'Avant Garde', sans-serif; text-anchor: end" x="542.725937" y="144.135447" transform="rotate(-0 542.725937 144.135447)">0.6</text>
     </g>
    </g>
    <g id="ytick_12">
     <g id="line2d_24">
      <g>
       <use xlink:href="#m133518e110" x="549.725937" y="87.67267" style="stroke: #000000; stroke-width: 0.8"/>
      </g>
     </g>
     <g id="text_28">
      <text style="font-size: 11px; font-family: 'DejaVu Sans', 'Bitstream Vera Sans', 'Computer Modern Sans Serif', 'Lucida Grande', 'Verdana', 'Geneva', 'Lucid', 'Arial', 'Helvetica', 'Avant Garde', sans-serif; text-anchor: end" x="542.725937" y="91.851811" transform="rotate(-0 542.725937 91.851811)">0.8</text>
     </g>
    </g>
    <g id="ytick_13">
     <g id="line2d_25">
      <g>
       <use xlink:href="#m133518e110" x="549.725937" y="35.389034" style="stroke: #000000; stroke-width: 0.8"/>
      </g>
     </g>
     <g id="text_29">
      <text style="font-size: 11px; font-family: 'DejaVu Sans', 'Bitstream Vera Sans', 'Computer Modern Sans Serif', 'Lucida Grande', 'Verdana', 'Geneva', 'Lucid', 'Arial', 'Helvetica', 'Avant Garde', sans-serif; text-anchor: end" x="542.725937" y="39.568175" transform="rotate(-0 542.725937 39.568175)">1.0</text>
     </g>
    </g>
    <g id="text_30">
     <text style="font-size: 11px; font-family: 'DejaVu Sans', 'Bitstream Vera Sans', 'Computer Modern Sans Serif', 'Lucida Grande', 'Verdana', 'Geneva', 'Lucid', 'Arial', 'Helvetica', 'Avant Garde', sans-serif; text-anchor: middle" x="518.944844" y="166.098125" transform="rotate(-90 518.944844 166.098125)">CDF</text>
    </g>
   </g>
   <g id="line2d_26">
    <path d="M 569.805256 296.807216 
L 575.295564 296.663429 
L 576.845499 296.493498 
L 579.913491 295.787634 
L 579.943887 295.761491 
L 580.364587 295.604632 
L 581.324491 294.951054 
L 581.42236 294.885696 
L 581.673499 294.676551 
L 582.456857 294.022973 
L 584.346558 291.421732 
L 584.468278 291.212587 
L 584.900681 290.559009 
L 585.115728 290.049218 
L 585.200347 289.892359 
L 585.831109 288.519845 
L 585.924232 288.323772 
L 586.0566 288.049269 
L 586.175594 287.800909 
L 586.345 287.421834 
L 586.440093 287.264975 
L 586.597076 286.820542 
L 586.879818 286.062391 
L 586.98945 285.5526 
L 587.064456 285.251955 
L 587.175739 284.96438 
L 587.324534 284.415374 
L 587.423286 284.153943 
L 587.578015 283.696439 
L 587.669747 283.408864 
L 587.84551 282.689928 
L 588.584276 279.748827 
L 588.672833 279.317465 
L 589.303654 276.690081 
L 589.421098 276.193362 
L 589.547804 275.578998 
L 589.663548 274.951563 
L 589.849643 274.075768 
L 589.890136 273.905838 
L 589.956616 273.618264 
L 590.869662 268.925573 
L 590.98092 268.180494 
L 591.126863 267.448486 
L 591.237012 266.925624 
L 593.660295 250.899888 
L 593.861209 249.396658 
L 593.973662 248.730008 
L 594.114262 247.645069 
L 594.182063 247.109135 
L 594.331159 245.828121 
L 594.549024 244.207248 
L 594.664952 243.357596 
L 594.74161 242.782447 
L 597.925334 214.4433 
L 598.046565 213.332217 
L 598.085028 212.953141 
L 598.178638 212.155776 
L 598.290146 211.227695 
L 598.362874 210.613332 
L 599.046363 203.776904 
L 599.473708 199.842364 
L 599.509336 199.463289 
L 599.652251 198.064632 
L 600.566162 189.306685 
L 600.744474 187.59431 
L 601.110115 184.404849 
L 601.30836 182.653259 
L 601.377869 181.986609 
L 601.801966 177.908282 
L 601.835614 177.424634 
L 602.626251 169.411766 
L 602.661462 169.163406 
L 602.844805 167.477175 
L 602.880259 167.228815 
L 603.058446 165.307295 
L 603.699601 159.621166 
L 603.833396 158.470868 
L 605.517909 143.93529 
L 605.610287 143.242498 
L 606.026246 139.856963 
L 606.05139 139.647818 
L 606.212336 138.288375 
L 606.273633 137.582511 
L 606.388295 136.811289 
L 606.449066 136.419142 
L 606.708884 134.040118 
L 606.812541 133.164323 
L 606.944314 132.118598 
L 607.251173 129.621929 
L 607.329921 128.929137 
L 607.565796 127.046832 
L 607.618535 126.706971 
L 607.768338 125.60896 
L 607.88915 124.484805 
L 607.952603 123.909656 
L 608.096822 122.720144 
L 608.158381 122.327997 
L 608.675504 117.988239 
L 608.770157 117.400018 
L 610.300246 106.903553 
L 610.354029 106.629051 
L 610.472626 105.936258 
L 610.507275 105.596397 
L 610.66014 104.576815 
L 610.762978 103.897094 
L 610.900485 102.982085 
L 610.933557 102.799083 
L 611.851868 96.83845 
L 611.893139 96.616234 
L 612.029361 95.75351 
L 612.343321 93.975778 
L 612.458339 93.335271 
L 612.577151 92.524835 
L 613.132461 89.387659 
L 613.366063 88.172004 
L 613.541094 87.139351 
L 613.608012 86.851776 
L 613.744204 86.106697 
L 613.895693 85.348547 
L 615.159275 79.400986 
L 615.298067 78.668978 
L 615.357626 78.525191 
L 615.50293 77.950042 
L 615.605291 77.518681 
L 615.724856 76.93046 
L 615.765822 76.76053 
L 616.146259 75.048155 
L 616.189261 74.812867 
L 616.31072 74.211575 
L 616.505126 73.518782 
L 616.70163 72.82599 
L 616.98235 71.558048 
L 617.109226 70.995971 
L 617.220988 70.499251 
L 617.584686 69.113666 
L 617.716645 68.682304 
L 618.501109 65.911133 
L 618.632797 65.518986 
L 618.758122 65.179125 
L 621.11272 58.198911 
L 621.195325 58.015909 
L 621.575932 57.02247 
L 622.114842 55.872173 
L 622.213658 55.676099 
L 622.277324 55.493097 
L 622.431385 55.114022 
L 623.518696 52.604282 
L 623.748163 52.199064 
L 623.862031 51.950704 
L 623.982226 51.780774 
L 624.335243 51.009551 
L 624.446814 50.774263 
L 624.678111 50.434403 
L 624.902363 49.963826 
L 625.125902 49.597823 
L 625.480299 48.891958 
L 625.623699 48.643599 
L 625.786598 48.421382 
L 625.942131 48.173022 
L 626.047475 47.990021 
L 626.414089 47.454086 
L 626.725434 47.009653 
L 626.837674 46.852795 
L 626.991491 46.669793 
L 627.126069 46.486791 
L 627.863169 45.401851 
L 627.987288 45.231921 
L 628.0799 45.127348 
L 628.280988 44.957418 
L 628.482888 44.72213 
L 628.708139 44.421484 
L 629.154835 43.963979 
L 629.298115 43.767906 
L 630.365223 42.761395 
L 630.676138 42.421535 
L 630.819233 42.277748 
L 630.946159 42.173175 
L 631.700998 41.598026 
L 632.012778 41.388881 
L 633.167649 40.617659 
L 633.40745 40.473872 
L 633.943773 40.107868 
L 634.303677 39.964081 
L 634.599247 39.846437 
L 635.285609 39.571934 
L 635.397832 39.493505 
L 635.668248 39.349718 
L 635.988847 39.179787 
L 636.334554 39.036 
L 636.68416 38.879141 
L 637.06894 38.604639 
L 637.294997 38.500066 
L 638.48043 38.107919 
L 638.903757 37.990275 
L 639.825136 37.728844 
L 640.389891 37.493556 
L 641.522247 37.245196 
L 643.536023 36.866121 
L 644.1797 36.709262 
L 645.532476 36.487045 
L 649.382067 36.121042 
L 649.970439 36.081827 
L 664.865677 35.467463 
L 679.893472 35.389034 
L 679.893472 35.389034 
" clip-path="url(#pa058b8fdaa)" style="fill: none; stroke: #1f77b4; stroke-width: 1.5; stroke-linecap: square"/>
   </g>
   <g id="line2d_27">
    <path d="M 971.391619 309.878125 
L 971.391619 22.318125 
" clip-path="url(#pa058b8fdaa)" style="fill: none; stroke-dasharray: 5.55,2.4; stroke-dashoffset: 0; stroke: #1f77b4; stroke-width: 1.5"/>
   </g>
   <g id="patch_34">
    <path d="M 549.725937 309.878125 
L 549.725937 22.318125 
" style="fill: none; stroke: #000000; stroke-width: 0.8; stroke-linejoin: miter; stroke-linecap: square"/>
   </g>
   <g id="patch_35">
    <path d="M 991.470937 309.878125 
L 991.470937 22.318125 
" style="fill: none; stroke: #000000; stroke-width: 0.8; stroke-linejoin: miter; stroke-linecap: square"/>
   </g>
   <g id="patch_36">
    <path d="M 549.725938 309.878125 
L 991.470938 309.878125 
" style="fill: none; stroke: #000000; stroke-width: 0.8; stroke-linejoin: miter; stroke-linecap: square"/>
   </g>
   <g id="patch_37">
    <path d="M 549.725938 22.318125 
L 991.470938 22.318125 
" style="fill: none; stroke: #000000; stroke-width: 0.8; stroke-linejoin: miter; stroke-linecap: square"/>
   </g>
   <g id="text_31">
    <text style="font-size: 12px; font-family: 'DejaVu Sans', 'Bitstream Vera Sans', 'Computer Modern Sans Serif', 'Lucida Grande', 'Verdana', 'Geneva', 'Lucid', 'Arial', 'Helvetica', 'Avant Garde', sans-serif; text-anchor: middle" x="770.598437" y="16.318125" transform="rotate(-0 770.598437 16.318125)">Permutation Test — CDF</text>
   </g>
   <g id="legend_2">
    <g id="patch_38">
     <path d="M 688.687969 304.378125 
L 852.508906 304.378125 
Q 854.708906 304.378125 854.708906 302.178125 
L 854.708906 270.98625 
Q 854.708906 268.78625 852.508906 268.78625 
L 688.687969 268.78625 
Q 686.487969 268.78625 686.487969 270.98625 
L 686.487969 302.178125 
Q 686.487969 304.378125 688.687969 304.378125 
z
" style="fill: #ffffff; opacity: 0.8; stroke: #cccccc; stroke-linejoin: miter"/>
    </g>
    <g id="line2d_28">
     <path d="M 690.887969 277.694531 
L 701.887969 277.694531 
L 712.887969 277.694531 
" style="fill: none; stroke: #1f77b4; stroke-width: 1.5; stroke-linecap: square"/>
    </g>
    <g id="text_32">
     <text style="font-size: 11px; font-family: 'DejaVu Sans', 'Bitstream Vera Sans', 'Computer Modern Sans Serif', 'Lucida Grande', 'Verdana', 'Geneva', 'Lucid', 'Arial', 'Helvetica', 'Avant Garde', sans-serif; text-anchor: start" x="721.687969" y="281.544531" transform="rotate(-0 721.687969 281.544531)">Shuffled CDF</text>
    </g>
    <g id="line2d_29">
     <path d="M 690.887969 293.840469 
L 701.887969 293.840469 
L 712.887969 293.840469 
" style="fill: none; stroke-dasharray: 5.55,2.4; stroke-dashoffset: 0; stroke: #1f77b4; stroke-width: 1.5"/>
    </g>
    <g id="text_33">
     <text style="font-size: 11px; font-family: 'DejaVu Sans', 'Bitstream Vera Sans', 'Computer Modern Sans Serif', 'Lucida Grande', 'Verdana', 'Geneva', 'Lucid', 'Arial', 'Helvetica', 'Avant Garde', sans-serif; text-anchor: start" x="721.687969" y="297.690469" transform="rotate(-0 721.687969 297.690469)">Observed = 1932.3781</text>
    </g>
   </g>
  </g>
 </g>
 <defs>
  <clipPath id="pff766281ab">
   <rect x="56.840938" y="22.318125" width="441.745" height="287.56"/>
  </clipPath>
  <clipPath id="pa058b8fdaa">
   <rect x="549.725937" y="22.318125" width="441.745" height="287.56"/>
  </clipPath>
 </defs>
</svg>
